<?xml version="1.0" encoding="utf-8"?>
<!-- Svg Vector Icons : http://www.onlinewebfonts.com/icon -->
<!DOCTYPE svg PUBLIC "-//W3C//DTD SVG 1.1//EN" "http://www.w3.org/Graphics/SVG/1.1/DTD/svg11.dtd">
<svg version="1.1" xmlns="http://www.w3.org/2000/svg" xmlns:xlink="http://www.w3.org/1999/xlink" x="0px" y="0px" viewBox="0 0 256 256" enable-background="new 0 0 256 256" xml:space="preserve">
<metadata> Svg Vector Icons : http://www.onlinewebfonts.com/icon </metadata>
<g><g><path fill="#000000" d="M125.6,10c37.8,0,68.4,30.6,68.4,68.4s-30.7,68.4-68.4,68.4c-37.8,0-68.4-30.6-68.4-68.4S87.8,10,125.6,10z"/><path fill="#000000" d="M70.4,151.6c0,0,27.4,18.9,55.5,18.9c29.5,0,59.7-18.9,59.7-18.9s28.8,15.4,40.5,33.8C243.4,212.5,246,246,246,246H10c0,0,2.8-34,20.2-61.1C41.9,166.7,70.4,151.6,70.4,151.6z"/></g></g>
</svg>